<svg xmlns="http://www.w3.org/2000/svg" class="logo-eneva" viewBox="0 0 113.647 101.709"><g transform="translate(0 0)"><path fill="#008372" d="M1352.126,785.5h23.438v6.084h-16.65v6.3h14.649v6.083h-14.649V810.5h16.872v6.084h-23.661Z" transform="translate(-1352.126 -736.023)" fill="#fff"></path><rect width="6.749" height="32.411" transform="translate(28.676 48.148)" fill="#fff"></rect><path d="M1507.437,819.692c-.4-3.018-2.176-5.062-5.019-5.062-2.795,0-4.615,2-5.148,5.062Zm-16.782,2V821.6c0-6.788,4.842-12.383,11.763-12.383,7.951,0,11.592,6.174,11.592,12.919,0,.532-.047,1.155-.09,1.773h-16.563a5.526,5.526,0,0,0,5.822,4.662,7.809,7.809,0,0,0,5.77-2.439l3.86,3.418a11.9,11.9,0,0,1-9.72,4.439c-7.152,0-12.433-5.015-12.433-12.3" transform="translate(-1450.706 -752.898)" fill="#fff"></path><path d="M1575.481,810.752h7.149l5.328,15.94,5.371-15.94h7.011l-9.368,23.974h-6.126Z" transform="translate(-1511.068 -753.991)" fill="#fff"></path><path d="M1679.646,825.5v-1.2a10.473,10.473,0,0,0-4.306-.889c-2.885,0-4.662,1.155-4.662,3.289v.086c0,1.824,1.511,2.885,3.684,2.885,3.151,0,5.285-1.726,5.285-4.169m-15.495,1.55v-.086c0-5.195,3.95-7.594,9.591-7.594a16.851,16.851,0,0,1,5.813.979v-.4c0-2.795-1.73-4.353-5.1-4.353a17.487,17.487,0,0,0-6.569,1.288l-1.691-5.148a20.947,20.947,0,0,1,9.235-1.911c3.688,0,6.353.979,8.037,2.663,1.777,1.777,2.576,4.4,2.576,7.595v13.807h-6.526v-2.576a9.159,9.159,0,0,1-7.2,3.018c-4.482,0-8.166-2.575-8.166-7.281" transform="translate(-1574.166 -753.333)" fill="#fff"></path><path d="M1451.464,923.935h7.379v1.559h-5.629v2.591h4.987v1.562h-4.987v2.674h5.7v1.566h-7.45Z" transform="translate(-1422.817 -834.534)" fill="#fff"></path><path d="M1488.2,932.289a3.24,3.24,0,0,0,3.453-3.351v-.032a3.266,3.266,0,0,0-3.453-3.382h-1.961v6.765Zm-3.711-8.354h3.711a4.959,4.959,0,0,1,5.289,4.945v.027a4.984,4.984,0,0,1-5.289,4.98h-3.711Z" transform="translate(-1446.319 -834.534)" fill="#fff"></path><path d="M1522.5,929.663v-5.727h1.746v5.657c0,1.844.955,2.842,2.521,2.842,1.55,0,2.5-.936,2.5-2.772v-5.727h1.746v5.641c0,2.971-1.675,4.467-4.279,4.467-2.588,0-4.236-1.5-4.236-4.38" transform="translate(-1473.367 -834.535)" fill="#fff"></path><path d="M1558.826,928.515v-.031a5.035,5.035,0,0,1,5.132-5.144,5.167,5.167,0,0,1,3.9,1.55l-1.123,1.292a3.967,3.967,0,0,0-2.784-1.237,3.345,3.345,0,0,0-3.284,3.512v.027a3.369,3.369,0,0,0,3.284,3.543,3.9,3.9,0,0,0,2.858-1.3l1.123,1.135a5.141,5.141,0,0,1-4.04,1.766,5.006,5.006,0,0,1-5.062-5.116" transform="translate(-1499.215 -834.11)" fill="#fff"></path><path d="M1600.659,929.761l-1.714-3.985-1.707,3.985Zm-2.5-6.068h1.621l4.38,10.022h-1.852l-1.01-2.4H1596.6l-1.022,2.4h-1.792Z" transform="translate(-1524.089 -834.361)" fill="#fff"></path><path d="M1634.965,935.182l1.1-1.648a4.98,4.98,0,0,1-4.036-5.018v-.031a5.035,5.035,0,0,1,5.132-5.144,5.175,5.175,0,0,1,3.9,1.55l-1.124,1.292a3.961,3.961,0,0,0-2.787-1.237,3.341,3.341,0,0,0-3.28,3.512v.027a3.365,3.365,0,0,0,3.28,3.542,3.9,3.9,0,0,0,2.858-1.3l1.124,1.135a5.081,5.081,0,0,1-3.723,1.754l-.936,2.2Z" transform="translate(-1551.311 -834.11)" fill="#fff"></path><path d="M1673.87,922.534l-1.723-3.985-1.707,3.985Zm-4.353-7.125c.3-1.108.724-1.746,1.593-1.746.783,0,1.59.552,2.09.552.411,0,.584-.223.783-.677l.967.281c-.313,1.108-.74,1.747-1.594,1.747-.783,0-1.59-.556-2.09-.556-.411,0-.583.231-.795.7Zm1.848,1.058h1.62l4.381,10.021h-1.852l-1.006-2.4h-4.71l-1.021,2.4h-1.789Z" transform="translate(-1576.185 -827.135)" fill="#fff"></path><path d="M1713.814,928.515v-.031a3.411,3.411,0,0,0-3.386-3.539,3.362,3.362,0,0,0-3.351,3.512v.027a3.41,3.41,0,0,0,3.383,3.543,3.361,3.361,0,0,0,3.355-3.511m-8.574,0v-.031a5.2,5.2,0,0,1,10.406-.027v.027a5.2,5.2,0,0,1-10.406.031" transform="translate(-1603.405 -834.11)" fill="#fff"></path><g transform="translate(58.845 0)"><path d="M79.712,32.388H57.982l6.656,6.02H77.5l18.108,17.72L77.5,73.848H64.638l-6.656,6.021h21.73l24.222-23.74Z" transform="translate(-49.132 -32.388)" fill="#fff"></path><path d="M54.991,139.42l-10.413,6.02H55.648l6.654-6.02Z" transform="translate(-40.166 -103.982)" fill="#fff"></path><path d="M55.677,50.572H44.585L55,56.593h7.33Z" transform="translate(-40.171 -44.551)" fill="#fff"></path><path d="M31.253,68.758l35.1,11.7-20.262-11.7Z" transform="translate(-31.253 -56.716)" fill="#fff"></path><path d="M104.809,68.758H98.192l12.932,11.7-12.932,11.7h6.617l11.875-11.7Z" transform="translate(-76.028 -56.716)" fill="#fff"></path><path d="M31.253,115.786l35.1-11.7-20.262,11.7Z" transform="translate(-31.253 -80.349)" fill="#fff"></path></g></g></svg>
